<svg xmlns="http://www.w3.org/2000/svg" viewBox="0 0 64 64"><defs><style>.cls-1{fill:#000842;}.cls-2{fill:#f6ae2d;}.cls-3{fill:#fff;stroke:#000842;stroke-miterlimit:10;stroke-width:2px;}</style></defs><title>Zeichenfläche 1</title><g id="Ebene_1" data-name="Ebene 1"><rect class="cls-1" width="64" height="64"/></g><g id="rimpldimpl"><path class="cls-2" d="M36.59,24.65H10.85a3,3,0,0,0-3,3V49.41a3,3,0,0,0,3,3H36.59a3,3,0,0,0,3-3V27.62A3,3,0,0,0,36.59,24.65ZM14.35,28.94a.74.74,0,0,1-.74.74H11.13a.74.74,0,0,1-.74-.74v-1a.75.75,0,0,1,.74-.75h2.48a.75.75,0,0,1,.74.75Zm22.7,0a.75.75,0,0,1-.75.74H16.62a.74.74,0,0,1-.74-.74v-1a.75.75,0,0,1,.74-.75H36.3a.76.76,0,0,1,.75.75Z"/><rect class="cls-3" x="25.13" y="10.9" width="31.69" height="27.73" rx="2.97" ry="2.97"/><rect class="cls-1" x="27.64" y="13.41" width="3.96" height="2.51" rx="0.74" ry="0.74"/><rect class="cls-1" x="33.13" y="13.41" width="21.17" height="2.51" rx="0.74" ry="0.74"/><path class="cls-1" d="M31.73,44.79a.92.92,0,0,0-.94-.93L23,44,41.16,26.13,40.9,34a.94.94,0,0,0,.92,1l2.14,0A.94.94,0,0,0,44.9,34l.15-13.59a.92.92,0,0,0-.92-.93l-13.59-.13a.93.93,0,0,0-.94.92l0,2.14a.92.92,0,0,0,.94.93l7.82-.09L20.15,41.08l.26-7.82a.94.94,0,0,0-.92-1l-2.14,0a.94.94,0,0,0-.94.92l-.14,13.59a.93.93,0,0,0,.91.94l13.6.13a.93.93,0,0,0,.93-.92l0-2.15Z"/></g></svg>